%TF.GenerationSoftware,KiCad,Pcbnew,(6.99.0-224-g211820a689)*%
%TF.CreationDate,2022-01-05T07:16:04+01:00*%
%TF.ProjectId,PCB,5043422e-6b69-4636-9164-5f7063625858,1.0*%
%TF.SameCoordinates,Original*%
%TF.FileFunction,Soldermask,Top*%
%TF.FilePolarity,Negative*%
%FSLAX46Y46*%
G04 Gerber Fmt 4.6, Leading zero omitted, Abs format (unit mm)*
G04 Created by KiCad (PCBNEW (6.99.0-224-g211820a689)) date 2022-01-05 07:16:04*
%MOMM*%
%LPD*%
G01*
G04 APERTURE LIST*
%ADD10O,2.524000X1.524000*%
%ADD11O,1.524000X2.524000*%
%ADD12R,1.524000X2.524000*%
%ADD13C,6.000000*%
%ADD14O,2.400000X1.600000*%
%ADD15R,2.400000X1.600000*%
%ADD16R,1.700000X1.700000*%
%ADD17O,1.700000X1.700000*%
%ADD18O,1.200000X1.600000*%
%ADD19O,1.200000X1.200000*%
%ADD20O,1.400000X1.400000*%
%ADD21C,1.400000*%
%ADD22O,2.032000X1.727200*%
%ADD23O,1.727200X2.032000*%
%ADD24R,2.600000X2.600000*%
%ADD25C,2.600000*%
%ADD26R,1.600000X1.600000*%
%ADD27C,1.600000*%
G04 APERTURE END LIST*
D10*
%TO.C,U1*%
X265900000Y-116880000D03*
X265900000Y-119420000D03*
X265900000Y-121960000D03*
X265900000Y-124500000D03*
X265900000Y-127040000D03*
X265900000Y-129580000D03*
X265900000Y-132120000D03*
X265900000Y-134660000D03*
X265900000Y-137200000D03*
X265908995Y-139740000D03*
X265900000Y-142280000D03*
X265900000Y-144820000D03*
X265900000Y-147360000D03*
X265900000Y-149900000D03*
D11*
X245120000Y-112400000D03*
X247660000Y-112400000D03*
X250200000Y-112400000D03*
X252740000Y-112400000D03*
X255280000Y-112400000D03*
X257820000Y-112400000D03*
X260360000Y-112400000D03*
D12*
X262900000Y-112400000D03*
D13*
X240900000Y-112400000D03*
X240900000Y-150900000D03*
X267400000Y-112400000D03*
X267400000Y-155400000D03*
%TD*%
D14*
%TO.C,U0*%
X212120000Y-135000000D03*
X204500000Y-142620000D03*
X212120000Y-137540000D03*
X204500000Y-140080000D03*
X212120000Y-140080000D03*
X204500000Y-137540000D03*
X212120000Y-142620000D03*
D15*
X204500000Y-135000000D03*
%TD*%
D16*
%TO.C,SW0*%
X195525000Y-131500000D03*
D17*
X192985000Y-131500000D03*
X190445000Y-131500000D03*
%TD*%
D18*
%TO.C,S0*%
X191900000Y-116400000D03*
D19*
X190183667Y-116957670D03*
X189122915Y-118417670D03*
X189122915Y-120222330D03*
X190183667Y-121682330D03*
X191900000Y-122240000D03*
X193616333Y-121682330D03*
X194677085Y-120222330D03*
X194677085Y-118417670D03*
X193616333Y-116957670D03*
%TD*%
D20*
%TO.C,R6*%
X202000000Y-127620000D03*
D21*
X202000000Y-120000000D03*
%TD*%
D20*
%TO.C,R5*%
X214320000Y-131300000D03*
D21*
X206700000Y-131300000D03*
%TD*%
%TO.C,R4*%
X190000000Y-135000000D03*
D20*
X190000000Y-142620000D03*
%TD*%
D21*
%TO.C,R3*%
X214000000Y-118500000D03*
D20*
X206380000Y-118500000D03*
%TD*%
D21*
%TO.C,R2*%
X200500000Y-142500000D03*
D20*
X200500000Y-150120000D03*
%TD*%
D21*
%TO.C,R1*%
X195500000Y-142500000D03*
D20*
X195500000Y-150120000D03*
%TD*%
D22*
%TO.C,P4*%
X226000000Y-137000000D03*
X226000000Y-139540000D03*
X226000000Y-142080000D03*
X226000000Y-144620000D03*
X226000000Y-147160000D03*
X226000000Y-149700000D03*
X226000000Y-152240000D03*
X226000000Y-154780000D03*
%TD*%
%TO.C,P3*%
X225000000Y-107300000D03*
X225000000Y-109840000D03*
X225000000Y-112380000D03*
X225000000Y-114920000D03*
X225000000Y-117460000D03*
X225000000Y-120000000D03*
X225000000Y-122540000D03*
X225000000Y-125080000D03*
X225000000Y-127620000D03*
X225000000Y-130160000D03*
%TD*%
%TO.C,P2*%
X217500000Y-128350000D03*
X217500000Y-125810000D03*
X217500000Y-123270000D03*
X217500000Y-120730000D03*
X217500000Y-118190000D03*
X217500000Y-115650000D03*
%TD*%
D23*
%TO.C,P1*%
X201100000Y-109000000D03*
X203640000Y-109000000D03*
X206180000Y-109000000D03*
X208720000Y-109000000D03*
X211260000Y-109000000D03*
X213800000Y-109000000D03*
X216340000Y-109000000D03*
X218880000Y-109000000D03*
%TD*%
D24*
%TO.C,J0*%
X192845000Y-107695000D03*
D25*
X187765000Y-107695000D03*
%TD*%
D26*
%TO.C,C4*%
X210594888Y-123900000D03*
D27*
X213094888Y-123900000D03*
%TD*%
D26*
%TO.C,C3*%
X208205113Y-148500000D03*
D27*
X205705113Y-148500000D03*
%TD*%
D26*
%TO.C,C2*%
X198000000Y-137000000D03*
D27*
X195500000Y-137000000D03*
%TD*%
D26*
%TO.C,C1*%
X190000000Y-146294888D03*
D27*
X190000000Y-148794888D03*
%TD*%
M02*
