%TF.GenerationSoftware,KiCad,Pcbnew,(6.99.0-224-g211820a689)*%
%TF.CreationDate,2022-01-05T07:16:04+01:00*%
%TF.ProjectId,PCB,5043422e-6b69-4636-9164-5f7063625858,1.0*%
%TF.SameCoordinates,Original*%
%TF.FileFunction,Copper,L1,Top*%
%TF.FilePolarity,Positive*%
%FSLAX46Y46*%
G04 Gerber Fmt 4.6, Leading zero omitted, Abs format (unit mm)*
G04 Created by KiCad (PCBNEW (6.99.0-224-g211820a689)) date 2022-01-05 07:16:04*
%MOMM*%
%LPD*%
G01*
G04 APERTURE LIST*
%ADD10C,0.500000*%
%TA.AperFunction,NonConductor*%
%ADD11C,0.500000*%
%TD*%
%TA.AperFunction,ComponentPad*%
%ADD12O,2.524000X1.524000*%
%TD*%
%TA.AperFunction,ComponentPad*%
%ADD13O,1.524000X2.524000*%
%TD*%
%TA.AperFunction,ComponentPad*%
%ADD14R,1.524000X2.524000*%
%TD*%
%TA.AperFunction,WasherPad*%
%ADD15C,6.000000*%
%TD*%
%TA.AperFunction,ComponentPad*%
%ADD16O,2.400000X1.600000*%
%TD*%
%TA.AperFunction,ComponentPad*%
%ADD17R,2.400000X1.600000*%
%TD*%
%TA.AperFunction,ComponentPad*%
%ADD18R,1.700000X1.700000*%
%TD*%
%TA.AperFunction,ComponentPad*%
%ADD19O,1.700000X1.700000*%
%TD*%
%TA.AperFunction,ComponentPad*%
%ADD20O,1.200000X1.600000*%
%TD*%
%TA.AperFunction,ComponentPad*%
%ADD21O,1.200000X1.200000*%
%TD*%
%TA.AperFunction,ComponentPad*%
%ADD22O,1.400000X1.400000*%
%TD*%
%TA.AperFunction,ComponentPad*%
%ADD23C,1.400000*%
%TD*%
%TA.AperFunction,ComponentPad*%
%ADD24O,2.032000X1.727200*%
%TD*%
%TA.AperFunction,ComponentPad*%
%ADD25O,1.727200X2.032000*%
%TD*%
%TA.AperFunction,ComponentPad*%
%ADD26R,2.600000X2.600000*%
%TD*%
%TA.AperFunction,ComponentPad*%
%ADD27C,2.600000*%
%TD*%
%TA.AperFunction,ComponentPad*%
%ADD28R,1.600000X1.600000*%
%TD*%
%TA.AperFunction,ComponentPad*%
%ADD29C,1.600000*%
%TD*%
%TA.AperFunction,ViaPad*%
%ADD30C,2.200000*%
%TD*%
%TA.AperFunction,Conductor*%
%ADD31C,0.800000*%
%TD*%
%TA.AperFunction,Conductor*%
%ADD32C,1.000000*%
%TD*%
G04 APERTURE END LIST*
D10*
D11*
X199688099Y-159209523D02*
X199973813Y-159304761D01*
X200450004Y-159304761D01*
X200640480Y-159209523D01*
X200735718Y-159114285D01*
X200830956Y-158923809D01*
X200830956Y-158733333D01*
X200735718Y-158542857D01*
X200640480Y-158447619D01*
X200450004Y-158352380D01*
X200069051Y-158257142D01*
X199878575Y-158161904D01*
X199783337Y-158066666D01*
X199688099Y-157876190D01*
X199688099Y-157685714D01*
X199783337Y-157495238D01*
X199878575Y-157400000D01*
X200069051Y-157304761D01*
X200545242Y-157304761D01*
X200830956Y-157400000D01*
X201607146Y-159304761D02*
X201607146Y-157304761D01*
X201607146Y-158257142D02*
X202750003Y-158257142D01*
X202750003Y-159304761D02*
X202750003Y-157304761D01*
X203526193Y-159304761D02*
X203526193Y-157304761D01*
X204302383Y-158257142D02*
X204969050Y-158257142D01*
X205254764Y-159304761D02*
X204302383Y-159304761D01*
X204302383Y-157304761D01*
X205254764Y-157304761D01*
X206983335Y-159304761D02*
X206030954Y-159304761D01*
X206030954Y-157304761D01*
X207759525Y-159304761D02*
X207759525Y-157304761D01*
X208235715Y-157304761D01*
X208521430Y-157400000D01*
X208711906Y-157590476D01*
X208807144Y-157780952D01*
X208902382Y-158161904D01*
X208902382Y-158447619D01*
X208807144Y-158828571D01*
X208711906Y-159019047D01*
X208521430Y-159209523D01*
X208235715Y-159304761D01*
X207759525Y-159304761D01*
X211926191Y-157400000D02*
X211735715Y-157304761D01*
X211450001Y-157304761D01*
X211164286Y-157400000D01*
X210973810Y-157590476D01*
X210878572Y-157780952D01*
X210783334Y-158161904D01*
X210783334Y-158447619D01*
X210878572Y-158828571D01*
X210973810Y-159019047D01*
X211164286Y-159209523D01*
X211450001Y-159304761D01*
X211640477Y-159304761D01*
X211926191Y-159209523D01*
X212021429Y-159114285D01*
X212021429Y-158447619D01*
X211640477Y-158447619D01*
X212702381Y-158733333D02*
X213654762Y-158733333D01*
X212511905Y-159304761D02*
X213178571Y-157304761D01*
X213845238Y-159304761D01*
X214430952Y-157304761D02*
X215764285Y-157304761D01*
X214430952Y-159304761D01*
X215764285Y-159304761D01*
X217645237Y-159209523D02*
X217930951Y-159304761D01*
X218407142Y-159304761D01*
X218597618Y-159209523D01*
X218692856Y-159114285D01*
X218788094Y-158923809D01*
X218788094Y-158733333D01*
X218692856Y-158542857D01*
X218597618Y-158447619D01*
X218407142Y-158352380D01*
X218026189Y-158257142D01*
X217835713Y-158161904D01*
X217740475Y-158066666D01*
X217645237Y-157876190D01*
X217645237Y-157685714D01*
X217740475Y-157495238D01*
X217835713Y-157400000D01*
X218026189Y-157304761D01*
X218502380Y-157304761D01*
X218788094Y-157400000D01*
X219564284Y-158257142D02*
X220230951Y-158257142D01*
X220516665Y-159304761D02*
X219564284Y-159304761D01*
X219564284Y-157304761D01*
X220516665Y-157304761D01*
X221292855Y-159304761D02*
X221292855Y-157304761D01*
X222435712Y-159304761D01*
X222435712Y-157304761D01*
X223116664Y-159209523D02*
X223402378Y-159304761D01*
X223878569Y-159304761D01*
X224069045Y-159209523D01*
X224164283Y-159114285D01*
X224259521Y-158923809D01*
X224259521Y-158733333D01*
X224164283Y-158542857D01*
X224069045Y-158447619D01*
X223878569Y-158352380D01*
X223497616Y-158257142D01*
X223307140Y-158161904D01*
X223211902Y-158066666D01*
X223116664Y-157876190D01*
X223116664Y-157685714D01*
X223211902Y-157495238D01*
X223307140Y-157400000D01*
X223497616Y-157304761D01*
X223973807Y-157304761D01*
X224259521Y-157400000D01*
X225416663Y-157304761D02*
X225797616Y-157304761D01*
X225988092Y-157400000D01*
X226178568Y-157590476D01*
X226273806Y-157971428D01*
X226273806Y-158638095D01*
X226178568Y-159019047D01*
X225988092Y-159209523D01*
X225797616Y-159304761D01*
X225416663Y-159304761D01*
X225226187Y-159209523D01*
X225035711Y-159019047D01*
X224940473Y-158638095D01*
X224940473Y-157971428D01*
X225035711Y-157590476D01*
X225226187Y-157400000D01*
X225416663Y-157304761D01*
X228192853Y-159304761D02*
X227526186Y-158352380D01*
X227049996Y-159304761D02*
X227049996Y-157304761D01*
X227811901Y-157304761D01*
X228002377Y-157400000D01*
X228097615Y-157495238D01*
X228192853Y-157685714D01*
X228192853Y-157971428D01*
X228097615Y-158161904D01*
X228002377Y-158257142D01*
X227811901Y-158352380D01*
X227049996Y-158352380D01*
D10*
D11*
X193307144Y-156304761D02*
X194450001Y-156304761D01*
X193878572Y-158304761D02*
X193878572Y-156304761D01*
X195607143Y-156304761D02*
X195988096Y-156304761D01*
X196178572Y-156400000D01*
X196369048Y-156590476D01*
X196464286Y-156971428D01*
X196464286Y-157638095D01*
X196369048Y-158019047D01*
X196178572Y-158209523D01*
X195988096Y-158304761D01*
X195607143Y-158304761D01*
X195416667Y-158209523D01*
X195226191Y-158019047D01*
X195130953Y-157638095D01*
X195130953Y-156971428D01*
X195226191Y-156590476D01*
X195416667Y-156400000D01*
X195607143Y-156304761D01*
X197240476Y-158304761D02*
X197240476Y-156304761D01*
X198002381Y-156304761D01*
X198192857Y-156400000D01*
X198288095Y-156495238D01*
X198383333Y-156685714D01*
X198383333Y-156971428D01*
X198288095Y-157161904D01*
X198192857Y-157257142D01*
X198002381Y-157352380D01*
X197240476Y-157352380D01*
D12*
%TO.P,U1,22*%
%TO.N,N/C*%
X265900000Y-116880000D03*
%TO.P,U1,21*%
X265900000Y-119420000D03*
%TO.P,U1,20*%
X265900000Y-121960000D03*
%TO.P,U1,19*%
X265900000Y-124500000D03*
%TO.P,U1,18*%
X265900000Y-127040000D03*
%TO.P,U1,17*%
X265900000Y-129580000D03*
%TO.P,U1,16*%
X265900000Y-132120000D03*
%TO.P,U1,15*%
X265900000Y-134660000D03*
%TO.P,U1,14*%
X265900000Y-137200000D03*
%TO.P,U1,13*%
X265908995Y-139740000D03*
%TO.P,U1,12*%
X265900000Y-142280000D03*
%TO.P,U1,11*%
X265900000Y-144820000D03*
%TO.P,U1,10*%
X265900000Y-147360000D03*
%TO.P,U1,9*%
X265900000Y-149900000D03*
D13*
%TO.P,U1,8,GND*%
%TO.N,GND*%
X245120000Y-112400000D03*
%TO.P,U1,7,VIN*%
%TO.N,unconnected-(U1-VIN)*%
X247660000Y-112400000D03*
%TO.P,U1,6,3V3*%
%TO.N,+3V3*%
X250200000Y-112400000D03*
%TO.P,U1,5,RST*%
%TO.N,/7*%
X252740000Y-112400000D03*
%TO.P,U1,4,RTS*%
%TO.N,/8*%
X255280000Y-112400000D03*
%TO.P,U1,3,CTS*%
%TO.N,/9(\u002A\u002A)*%
X257820000Y-112400000D03*
%TO.P,U1,2,RX_LoRa*%
%TO.N,/10(\u002A\u002A{slash}SS)*%
X260360000Y-112400000D03*
D14*
%TO.P,U1,1,TX_LoRa*%
%TO.N,/11(\u002A\u002A{slash}MOSI)*%
X262900000Y-112400000D03*
D15*
%TO.P,U1,*%
%TO.N,*%
X240900000Y-112400000D03*
X240900000Y-150900000D03*
X267400000Y-112400000D03*
X267400000Y-155400000D03*
%TD*%
D16*
%TO.P,U0,8*%
%TO.N,Net-(C4-Pad2)*%
X212120000Y-135000000D03*
%TO.P,U0,4,V-*%
%TO.N,GND*%
X204500000Y-142620000D03*
%TO.P,U0,7,COMP*%
%TO.N,unconnected-(U0-COMP)*%
X212120000Y-137540000D03*
%TO.P,U0,3,-*%
%TO.N,Net-(U0--)*%
X204500000Y-140080000D03*
%TO.P,U0,6,+*%
%TO.N,Net-(U0-+)*%
X212120000Y-140080000D03*
%TO.P,U0,2,CMRR*%
%TO.N,unconnected-(U0-CMRR)*%
X204500000Y-137540000D03*
%TO.P,U0,5,V+*%
%TO.N,+5V*%
X212120000Y-142620000D03*
D17*
%TO.P,U0,1,GND*%
%TO.N,unconnected-(U0-GND)*%
X204500000Y-135000000D03*
%TD*%
D18*
%TO.P,SW0,1,A*%
%TO.N,Net-(S0-GazSensorLeft)*%
X195525000Y-131500000D03*
D19*
%TO.P,SW0,2,B*%
%TO.N,Net-(SW0A-B)*%
X192985000Y-131500000D03*
%TO.P,SW0,3,C*%
%TO.N,Net-(S0-GazSensorRight)*%
X190445000Y-131500000D03*
%TD*%
D20*
%TO.P,S0,1,TempSensor*%
%TO.N,+5V*%
X191900000Y-116400000D03*
D21*
%TO.P,S0,2,GazSensorRight*%
%TO.N,+3V3*%
X190183667Y-116957670D03*
%TO.P,S0,3,HeatResistor*%
%TO.N,GND*%
X189122915Y-118417670D03*
%TO.P,S0,4,GazSensorRight*%
%TO.N,Net-(S0-GazSensorRight)*%
X189122915Y-120222330D03*
%TO.P,S0,5*%
%TO.N,unconnected-(S0-Pad5)*%
X190183667Y-121682330D03*
%TO.P,S0,6,TempSensor*%
%TO.N,TempADC*%
X191900000Y-122240000D03*
%TO.P,S0,7,GazSensorLeft*%
%TO.N,Net-(S0-GazSensorLeft)*%
X193616333Y-121682330D03*
%TO.P,S0,8,HeatResistor*%
%TO.N,+15V*%
X194677085Y-120222330D03*
%TO.P,S0,9,GazSensorLeft*%
%TO.N,+3V3*%
X194677085Y-118417670D03*
%TO.P,S0,10*%
%TO.N,unconnected-(S0-Pad10)*%
X193616333Y-116957670D03*
%TD*%
D22*
%TO.P,R6,2*%
%TO.N,GND*%
X202000000Y-127620000D03*
D23*
%TO.P,R6,1*%
%TO.N,TempADC*%
X202000000Y-120000000D03*
%TD*%
D22*
%TO.P,R5,2*%
%TO.N,Net-(C4-Pad2)*%
X214320000Y-131300000D03*
D23*
%TO.P,R5,1*%
%TO.N,ADC_GAZ*%
X206700000Y-131300000D03*
%TD*%
%TO.P,R4,1*%
%TO.N,Net-(SW0A-B)*%
X190000000Y-135000000D03*
D22*
%TO.P,R4,2*%
%TO.N,Net-(U0-+)*%
X190000000Y-142620000D03*
%TD*%
D23*
%TO.P,R3,1*%
%TO.N,Net-(C4-Pad2)*%
X214000000Y-118500000D03*
D22*
%TO.P,R3,2*%
%TO.N,Net-(U0--)*%
X206380000Y-118500000D03*
%TD*%
D23*
%TO.P,R2,1*%
%TO.N,Net-(U0--)*%
X200500000Y-142500000D03*
D22*
%TO.P,R2,2*%
%TO.N,GND*%
X200500000Y-150120000D03*
%TD*%
D23*
%TO.P,R1,1*%
%TO.N,Net-(U0-+)*%
X195500000Y-142500000D03*
D22*
%TO.P,R1,2*%
%TO.N,GND*%
X195500000Y-150120000D03*
%TD*%
D24*
%TO.P,P4,1,Pin_1*%
%TO.N,/7*%
X226000000Y-137000000D03*
%TO.P,P4,2,Pin_2*%
%TO.N,/6(\u002A\u002A)*%
X226000000Y-139540000D03*
%TO.P,P4,3,Pin_3*%
%TO.N,/5(\u002A\u002A)*%
X226000000Y-142080000D03*
%TO.P,P4,4,Pin_4*%
%TO.N,/4*%
X226000000Y-144620000D03*
%TO.P,P4,5,Pin_5*%
%TO.N,/3(\u002A\u002A)*%
X226000000Y-147160000D03*
%TO.P,P4,6,Pin_6*%
%TO.N,/2*%
X226000000Y-149700000D03*
%TO.P,P4,7,Pin_7*%
%TO.N,/1(Tx)*%
X226000000Y-152240000D03*
%TO.P,P4,8,Pin_8*%
%TO.N,/0(Rx)*%
X226000000Y-154780000D03*
%TD*%
%TO.P,P3,1,Pin_1*%
%TO.N,unconnected-(P3-Pin_1)*%
X225000000Y-107300000D03*
%TO.P,P3,2,Pin_2*%
%TO.N,unconnected-(P3-Pin_2)*%
X225000000Y-109840000D03*
%TO.P,P3,3,Pin_3*%
%TO.N,unconnected-(P3-Pin_3)*%
X225000000Y-112380000D03*
%TO.P,P3,4,Pin_4*%
%TO.N,GND*%
X225000000Y-114920000D03*
%TO.P,P3,5,Pin_5*%
%TO.N,/13(SCK)*%
X225000000Y-117460000D03*
%TO.P,P3,6,Pin_6*%
%TO.N,/12(MISO)*%
X225000000Y-120000000D03*
%TO.P,P3,7,Pin_7*%
%TO.N,/11(\u002A\u002A{slash}MOSI)*%
X225000000Y-122540000D03*
%TO.P,P3,8,Pin_8*%
%TO.N,/10(\u002A\u002A{slash}SS)*%
X225000000Y-125080000D03*
%TO.P,P3,9,Pin_9*%
%TO.N,/9(\u002A\u002A)*%
X225000000Y-127620000D03*
%TO.P,P3,10,Pin_10*%
%TO.N,/8*%
X225000000Y-130160000D03*
%TD*%
%TO.P,P2,6,Pin_6*%
%TO.N,/A5(SCL)*%
X217500000Y-128350000D03*
%TO.P,P2,5,Pin_5*%
%TO.N,/A4(SDA)*%
X217500000Y-125810000D03*
%TO.P,P2,4,Pin_4*%
%TO.N,/A3*%
X217500000Y-123270000D03*
%TO.P,P2,3,Pin_3*%
%TO.N,/A2*%
X217500000Y-120730000D03*
%TO.P,P2,2,Pin_2*%
%TO.N,TempADC*%
X217500000Y-118190000D03*
%TO.P,P2,1,Pin_1*%
%TO.N,ADC_GAZ*%
X217500000Y-115650000D03*
%TD*%
D25*
%TO.P,P1,1,Pin_1*%
%TO.N,unconnected-(P1-Pin_1)*%
X201100000Y-109000000D03*
%TO.P,P1,2,Pin_2*%
%TO.N,/IOREF*%
X203640000Y-109000000D03*
%TO.P,P1,3,Pin_3*%
%TO.N,/Reset*%
X206180000Y-109000000D03*
%TO.P,P1,4,Pin_4*%
%TO.N,+3V3*%
X208720000Y-109000000D03*
%TO.P,P1,5,Pin_5*%
%TO.N,+5V*%
X211260000Y-109000000D03*
%TO.P,P1,6,Pin_6*%
%TO.N,unconnected-(P1-Pin_6)*%
X213800000Y-109000000D03*
%TO.P,P1,7,Pin_7*%
%TO.N,unconnected-(P1-Pin_7)*%
X216340000Y-109000000D03*
%TO.P,P1,8,Pin_8*%
%TO.N,/Vin*%
X218880000Y-109000000D03*
%TD*%
D26*
%TO.P,J0,1,Pin_1*%
%TO.N,+15V*%
X192845000Y-107695000D03*
D27*
%TO.P,J0,2,Pin_2*%
%TO.N,GND*%
X187765000Y-107695000D03*
%TD*%
D28*
%TO.P,C4,1*%
%TO.N,Net-(U0--)*%
X210594888Y-123900000D03*
D29*
%TO.P,C4,2*%
%TO.N,Net-(C4-Pad2)*%
X213094888Y-123900000D03*
%TD*%
D28*
%TO.P,C3,1*%
%TO.N,+5V*%
X208205113Y-148500000D03*
D29*
%TO.P,C3,2*%
%TO.N,GND*%
X205705113Y-148500000D03*
%TD*%
D28*
%TO.P,C2,1*%
%TO.N,ADC_GAZ*%
X198000000Y-137000000D03*
D29*
%TO.P,C2,2*%
%TO.N,GND*%
X195500000Y-137000000D03*
%TD*%
D28*
%TO.P,C1,1*%
%TO.N,Net-(U0-+)*%
X190000000Y-146294888D03*
D29*
%TO.P,C1,2*%
%TO.N,GND*%
X190000000Y-148794888D03*
%TD*%
D30*
%TO.N,TempADC*%
X205934571Y-124365429D03*
X191900000Y-127600000D03*
%TO.N,+15V*%
X194255282Y-100899500D03*
%TO.N,+5V*%
X213600000Y-104900000D03*
%TO.N,+15V*%
X198600000Y-125600000D03*
%TO.N,+5V*%
X217100000Y-139300000D03*
%TD*%
D31*
%TO.N,TempADC*%
X205900000Y-124400000D02*
X205934571Y-124365429D01*
X203200000Y-130500000D02*
X205900000Y-127800000D01*
X200400000Y-130500000D02*
X203200000Y-130500000D01*
X205900000Y-127800000D02*
X205900000Y-124400000D01*
X197599511Y-127699511D02*
X200400000Y-130500000D01*
X191999511Y-127699511D02*
X197599511Y-127699511D01*
X191900000Y-127600000D02*
X191999511Y-127699511D01*
D32*
%TO.N,+15V*%
X196099500Y-100899500D02*
X194255282Y-100899500D01*
X197600000Y-113000000D02*
X197600000Y-102400000D01*
X198400000Y-113800000D02*
X197600000Y-113000000D01*
X197600000Y-102400000D02*
X196099500Y-100899500D01*
X198400000Y-125400000D02*
X198400000Y-113800000D01*
X198600000Y-125600000D02*
X198400000Y-125400000D01*
%TO.N,+5V*%
X216300000Y-102200000D02*
X213600000Y-104900000D01*
X219200000Y-102200000D02*
X216300000Y-102200000D01*
X221900000Y-134500000D02*
X221900000Y-104900000D01*
X217100000Y-139300000D02*
X221900000Y-134500000D01*
X221900000Y-104900000D02*
X219200000Y-102200000D01*
%TD*%
M02*
