M48
; DRILL file {KiCad (6.99.0-224-g211820a689)} date Wed Jan  5 07:13:16 2022
; FORMAT={-:-/ absolute / metric / decimal}
; #@! TF.CreationDate,2022-01-05T07:13:16+01:00
; #@! TF.GenerationSoftware,Kicad,Pcbnew,(6.99.0-224-g211820a689)
; #@! TF.FileFunction,Plated,1,2,PTH
FMAT,2
METRIC
; #@! TA.AperFunction,Plated,PTH,ComponentDrill
T1C0.700
; #@! TA.AperFunction,Plated,PTH,ComponentDrill
T2C0.762
; #@! TA.AperFunction,Plated,PTH,ViaDrill
T3C0.800
; #@! TA.AperFunction,Plated,PTH,ComponentDrill
T4C0.800
; #@! TA.AperFunction,Plated,PTH,ComponentDrill
T5C1.000
; #@! TA.AperFunction,Plated,PTH,ComponentDrill
T6C1.016
; #@! TA.AperFunction,Plated,PTH,ComponentDrill
T7C1.300
%
G90
G05
T1
X189.123Y-118.418
X189.123Y-120.222
X190.0Y-135.0
X190.0Y-142.62
X190.184Y-116.958
X190.184Y-121.682
X191.9Y-116.4
X191.9Y-122.24
X193.616Y-116.958
X193.616Y-121.682
X194.677Y-118.418
X194.677Y-120.222
X195.5Y-142.5
X195.5Y-150.12
X200.5Y-142.5
X200.5Y-150.12
X202.0Y-120.0
X202.0Y-127.62
X206.38Y-118.5
X206.7Y-131.3
X214.0Y-118.5
X214.32Y-131.3
T2
X245.12Y-112.4
X247.66Y-112.4
X250.2Y-112.4
X252.74Y-112.4
X255.28Y-112.4
X257.82Y-112.4
X260.36Y-112.4
X262.9Y-112.4
X265.9Y-116.88
X265.9Y-119.42
X265.9Y-121.96
X265.9Y-124.5
X265.9Y-127.04
X265.9Y-129.58
X265.9Y-132.12
X265.9Y-134.66
X265.9Y-137.2
X265.9Y-142.28
X265.9Y-144.82
X265.9Y-147.36
X265.9Y-149.9
X265.909Y-139.74
T3
X191.9Y-127.6
X194.255Y-100.899
X198.6Y-125.6
X205.935Y-124.365
X213.6Y-104.9
X217.1Y-139.3
T4
X190.0Y-146.295
X190.0Y-148.795
X195.5Y-137.0
X198.0Y-137.0
X204.5Y-135.0
X204.5Y-137.54
X204.5Y-140.08
X204.5Y-142.62
X205.705Y-148.5
X208.205Y-148.5
X210.595Y-123.9
X212.12Y-135.0
X212.12Y-137.54
X212.12Y-140.08
X212.12Y-142.62
X213.095Y-123.9
T5
X190.445Y-131.5
X192.985Y-131.5
X195.525Y-131.5
T6
X201.1Y-109.0
X203.64Y-109.0
X206.18Y-109.0
X208.72Y-109.0
X211.26Y-109.0
X213.8Y-109.0
X216.34Y-109.0
X217.5Y-115.65
X217.5Y-118.19
X217.5Y-120.73
X217.5Y-123.27
X217.5Y-125.81
X217.5Y-128.35
X218.88Y-109.0
X225.0Y-107.3
X225.0Y-109.84
X225.0Y-112.38
X225.0Y-114.92
X225.0Y-117.46
X225.0Y-120.0
X225.0Y-122.54
X225.0Y-125.08
X225.0Y-127.62
X225.0Y-130.16
X226.0Y-137.0
X226.0Y-139.54
X226.0Y-142.08
X226.0Y-144.62
X226.0Y-147.16
X226.0Y-149.7
X226.0Y-152.24
X226.0Y-154.78
T7
X187.765Y-107.695
X192.845Y-107.695
T0
M30
