%TF.GenerationSoftware,KiCad,Pcbnew,(6.99.0-224-g211820a689)*%
%TF.CreationDate,2022-01-05T07:16:04+01:00*%
%TF.ProjectId,PCB,5043422e-6b69-4636-9164-5f7063625858,1.0*%
%TF.SameCoordinates,Original*%
%TF.FileFunction,Legend,Top*%
%TF.FilePolarity,Positive*%
%FSLAX46Y46*%
G04 Gerber Fmt 4.6, Leading zero omitted, Abs format (unit mm)*
G04 Created by KiCad (PCBNEW (6.99.0-224-g211820a689)) date 2022-01-05 07:16:04*
%MOMM*%
%LPD*%
G01*
G04 APERTURE LIST*
%ADD10C,0.150000*%
%ADD11C,0.120000*%
%ADD12O,2.032000X1.727200*%
%ADD13O,1.727200X2.032000*%
G04 APERTURE END LIST*
D10*
%TO.C,U1*%
X254597617Y-140447619D02*
X254597617Y-139638095D01*
X254549998Y-139542857D01*
X254502379Y-139495238D01*
X254407141Y-139447619D01*
X254216665Y-139447619D01*
X254121427Y-139495238D01*
X254073808Y-139542857D01*
X254026189Y-139638095D01*
X254026189Y-140447619D01*
X253114285Y-139447619D02*
X253685713Y-139447619D01*
X253399999Y-139447619D02*
X253399999Y-140447619D01*
X253495237Y-140304761D01*
X253590475Y-140209523D01*
X253685713Y-140161904D01*
%TO.C,U0*%
X204202382Y-131852380D02*
X204202382Y-132661904D01*
X204250001Y-132757142D01*
X204297620Y-132804761D01*
X204392858Y-132852380D01*
X204583334Y-132852380D01*
X204678572Y-132804761D01*
X204726191Y-132757142D01*
X204773810Y-132661904D01*
X204773810Y-131852380D01*
X205352381Y-131852380D02*
X205447619Y-131852380D01*
X205542857Y-131900000D01*
X205590476Y-131947619D01*
X205638095Y-132042857D01*
X205685714Y-132233333D01*
X205685714Y-132471428D01*
X205638095Y-132661904D01*
X205590476Y-132757142D01*
X205542857Y-132804761D01*
X205447619Y-132852380D01*
X205352381Y-132852380D01*
X205257143Y-132804761D01*
X205209524Y-132757142D01*
X205161905Y-132661904D01*
X205114286Y-132471428D01*
X205114286Y-132233333D01*
X205161905Y-132042857D01*
X205209524Y-131947619D01*
X205257143Y-131900000D01*
X205352381Y-131852380D01*
%TO.C,SW0*%
X198259761Y-132796427D02*
X198307380Y-132653570D01*
X198307380Y-132415475D01*
X198259761Y-132320237D01*
X198212142Y-132272618D01*
X198116904Y-132224999D01*
X198021666Y-132224999D01*
X197926428Y-132272618D01*
X197878809Y-132320237D01*
X197831190Y-132415475D01*
X197783571Y-132605951D01*
X197735952Y-132701189D01*
X197688333Y-132748808D01*
X197593095Y-132796427D01*
X197497857Y-132796427D01*
X197402619Y-132748808D01*
X197355000Y-132701189D01*
X197307380Y-132605951D01*
X197307380Y-132367856D01*
X197355000Y-132224999D01*
X197307380Y-131932142D02*
X198307380Y-131694047D01*
X197593095Y-131503571D01*
X198307380Y-131313095D01*
X197307380Y-131075000D01*
X197307380Y-130496428D02*
X197307380Y-130401190D01*
X197355000Y-130305952D01*
X197402619Y-130258333D01*
X197497857Y-130210714D01*
X197688333Y-130163095D01*
X197926428Y-130163095D01*
X198116904Y-130210714D01*
X198212142Y-130258333D01*
X198259761Y-130305952D01*
X198307380Y-130401190D01*
X198307380Y-130496428D01*
X198259761Y-130591666D01*
X198212142Y-130639285D01*
X198116904Y-130686904D01*
X197926428Y-130734523D01*
X197688333Y-130734523D01*
X197497857Y-130686904D01*
X197402619Y-130639285D01*
X197355000Y-130591666D01*
X197307380Y-130496428D01*
%TO.C,S0*%
X198124761Y-120041427D02*
X198172380Y-119898570D01*
X198172380Y-119660475D01*
X198124761Y-119565237D01*
X198077142Y-119517618D01*
X197981904Y-119469999D01*
X197886666Y-119469999D01*
X197791428Y-119517618D01*
X197743809Y-119565237D01*
X197696190Y-119660475D01*
X197648571Y-119850951D01*
X197600952Y-119946189D01*
X197553333Y-119993808D01*
X197458095Y-120041427D01*
X197362857Y-120041427D01*
X197267619Y-119993808D01*
X197220000Y-119946189D01*
X197172380Y-119850951D01*
X197172380Y-119612856D01*
X197220000Y-119469999D01*
X197172380Y-118891428D02*
X197172380Y-118796190D01*
X197220000Y-118700952D01*
X197267619Y-118653333D01*
X197362857Y-118605714D01*
X197553333Y-118558095D01*
X197791428Y-118558095D01*
X197981904Y-118605714D01*
X198077142Y-118653333D01*
X198124761Y-118700952D01*
X198172380Y-118796190D01*
X198172380Y-118891428D01*
X198124761Y-118986666D01*
X198077142Y-119034285D01*
X197981904Y-119081904D01*
X197791428Y-119129523D01*
X197553333Y-119129523D01*
X197362857Y-119081904D01*
X197267619Y-119034285D01*
X197220000Y-118986666D01*
X197172380Y-118891428D01*
%TO.C,R6*%
X204372380Y-123936189D02*
X203896190Y-124269522D01*
X204372380Y-124507617D02*
X203372380Y-124507617D01*
X203372380Y-124126665D01*
X203420000Y-124031427D01*
X203467619Y-123983808D01*
X203562857Y-123936189D01*
X203705714Y-123936189D01*
X203800952Y-123983808D01*
X203848571Y-124031427D01*
X203896190Y-124126665D01*
X203896190Y-124507617D01*
X203372380Y-123119523D02*
X203372380Y-123309999D01*
X203420000Y-123405237D01*
X203467619Y-123452856D01*
X203610476Y-123548094D01*
X203800952Y-123595713D01*
X204181904Y-123595713D01*
X204277142Y-123548094D01*
X204324761Y-123500475D01*
X204372380Y-123405237D01*
X204372380Y-123214761D01*
X204324761Y-123119523D01*
X204277142Y-123071904D01*
X204181904Y-123024285D01*
X203943809Y-123024285D01*
X203848571Y-123071904D01*
X203800952Y-123119523D01*
X203753333Y-123214761D01*
X203753333Y-123405237D01*
X203800952Y-123500475D01*
X203848571Y-123548094D01*
X203943809Y-123595713D01*
%TO.C,R5*%
X210383810Y-129832380D02*
X210050477Y-129356190D01*
X209812382Y-129832380D02*
X209812382Y-128832380D01*
X210193334Y-128832380D01*
X210288572Y-128880000D01*
X210336191Y-128927619D01*
X210383810Y-129022857D01*
X210383810Y-129165714D01*
X210336191Y-129260952D01*
X210288572Y-129308571D01*
X210193334Y-129356190D01*
X209812382Y-129356190D01*
X211248095Y-128832380D02*
X210771905Y-128832380D01*
X210724286Y-129308571D01*
X210771905Y-129260952D01*
X210867143Y-129213333D01*
X211105238Y-129213333D01*
X211200476Y-129260952D01*
X211248095Y-129308571D01*
X211295714Y-129403809D01*
X211295714Y-129641904D01*
X211248095Y-129737142D01*
X211200476Y-129784761D01*
X211105238Y-129832380D01*
X210867143Y-129832380D01*
X210771905Y-129784761D01*
X210724286Y-129737142D01*
%TO.C,R4*%
X192372380Y-138959999D02*
X191896190Y-139293332D01*
X192372380Y-139531427D02*
X191372380Y-139531427D01*
X191372380Y-139150475D01*
X191420000Y-139055237D01*
X191467619Y-139007618D01*
X191562857Y-138959999D01*
X191705714Y-138959999D01*
X191800952Y-139007618D01*
X191848571Y-139055237D01*
X191896190Y-139150475D01*
X191896190Y-139531427D01*
X191705714Y-138143333D02*
X192372380Y-138143333D01*
X191324761Y-138381428D02*
X192039047Y-138619523D01*
X192039047Y-138000476D01*
%TO.C,R3*%
X207773810Y-120872380D02*
X207440477Y-120396190D01*
X207202382Y-120872380D02*
X207202382Y-119872380D01*
X207583334Y-119872380D01*
X207678572Y-119920000D01*
X207726191Y-119967619D01*
X207773810Y-120062857D01*
X207773810Y-120205714D01*
X207726191Y-120300952D01*
X207678572Y-120348571D01*
X207583334Y-120396190D01*
X207202382Y-120396190D01*
X208066667Y-119872380D02*
X208685714Y-119872380D01*
X208352381Y-120253333D01*
X208495238Y-120253333D01*
X208590476Y-120300952D01*
X208638095Y-120348571D01*
X208685714Y-120443809D01*
X208685714Y-120681904D01*
X208638095Y-120777142D01*
X208590476Y-120824761D01*
X208495238Y-120872380D01*
X208209524Y-120872380D01*
X208114286Y-120824761D01*
X208066667Y-120777142D01*
%TO.C,R2*%
X202872380Y-146436189D02*
X202396190Y-146769522D01*
X202872380Y-147007617D02*
X201872380Y-147007617D01*
X201872380Y-146626665D01*
X201920000Y-146531427D01*
X201967619Y-146483808D01*
X202062857Y-146436189D01*
X202205714Y-146436189D01*
X202300952Y-146483808D01*
X202348571Y-146531427D01*
X202396190Y-146626665D01*
X202396190Y-147007617D01*
X201967619Y-146095713D02*
X201920000Y-146048094D01*
X201872380Y-145952856D01*
X201872380Y-145714761D01*
X201920000Y-145619523D01*
X201967619Y-145571904D01*
X202062857Y-145524285D01*
X202158095Y-145524285D01*
X202300952Y-145571904D01*
X202872380Y-146143332D01*
X202872380Y-145524285D01*
%TO.C,R1*%
X197872380Y-146436189D02*
X197396190Y-146769522D01*
X197872380Y-147007617D02*
X196872380Y-147007617D01*
X196872380Y-146626665D01*
X196920000Y-146531427D01*
X196967619Y-146483808D01*
X197062857Y-146436189D01*
X197205714Y-146436189D01*
X197300952Y-146483808D01*
X197348571Y-146531427D01*
X197396190Y-146626665D01*
X197396190Y-147007617D01*
X197872380Y-145524285D02*
X197872380Y-146095713D01*
X197872380Y-145809999D02*
X196872380Y-145809999D01*
X197015238Y-145905237D01*
X197110476Y-146000475D01*
X197158095Y-146095713D01*
%TO.C,P4*%
X231552380Y-137721427D02*
X230552380Y-137721427D01*
X230552380Y-137340475D01*
X230600000Y-137245237D01*
X230647619Y-137197618D01*
X230742857Y-137149999D01*
X230885714Y-137149999D01*
X230980952Y-137197618D01*
X231028571Y-137245237D01*
X231076190Y-137340475D01*
X231076190Y-137721427D01*
X230885714Y-136333333D02*
X231552380Y-136333333D01*
X230504761Y-136571428D02*
X231219047Y-136809523D01*
X231219047Y-136190476D01*
%TO.C,P3*%
X230552380Y-107997617D02*
X229552380Y-107997617D01*
X229552380Y-107616665D01*
X229600000Y-107521427D01*
X229647619Y-107473808D01*
X229742857Y-107426189D01*
X229885714Y-107426189D01*
X229980952Y-107473808D01*
X230028571Y-107521427D01*
X230076190Y-107616665D01*
X230076190Y-107997617D01*
X229552380Y-107133332D02*
X229552380Y-106514285D01*
X229933333Y-106847618D01*
X229933333Y-106704761D01*
X229980952Y-106609523D01*
X230028571Y-106561904D01*
X230123809Y-106514285D01*
X230361904Y-106514285D01*
X230457142Y-106561904D01*
X230504761Y-106609523D01*
X230552380Y-106704761D01*
X230552380Y-106990475D01*
X230504761Y-107085713D01*
X230457142Y-107133332D01*
%TO.C,P2*%
X223052380Y-116347617D02*
X222052380Y-116347617D01*
X222052380Y-115966665D01*
X222100000Y-115871427D01*
X222147619Y-115823808D01*
X222242857Y-115776189D01*
X222385714Y-115776189D01*
X222480952Y-115823808D01*
X222528571Y-115871427D01*
X222576190Y-115966665D01*
X222576190Y-116347617D01*
X222147619Y-115435713D02*
X222100000Y-115388094D01*
X222052380Y-115292856D01*
X222052380Y-115054761D01*
X222100000Y-114959523D01*
X222147619Y-114911904D01*
X222242857Y-114864285D01*
X222338095Y-114864285D01*
X222480952Y-114911904D01*
X223052380Y-115483332D01*
X223052380Y-114864285D01*
%TO.C,P1*%
X200402382Y-104352380D02*
X200402382Y-103352380D01*
X200783334Y-103352380D01*
X200878572Y-103400000D01*
X200926191Y-103447619D01*
X200973810Y-103542857D01*
X200973810Y-103685714D01*
X200926191Y-103780952D01*
X200878572Y-103828571D01*
X200783334Y-103876190D01*
X200402382Y-103876190D01*
X201885714Y-104352380D02*
X201314286Y-104352380D01*
X201600000Y-104352380D02*
X201600000Y-103352380D01*
X201504762Y-103495238D01*
X201409524Y-103590476D01*
X201314286Y-103638095D01*
%TO.C,J0*%
X190035953Y-113407380D02*
X190035953Y-114121666D01*
X189988334Y-114264523D01*
X189893096Y-114359761D01*
X189750239Y-114407380D01*
X189655001Y-114407380D01*
X190614524Y-113407380D02*
X190709762Y-113407380D01*
X190805000Y-113455000D01*
X190852619Y-113502619D01*
X190900238Y-113597857D01*
X190947857Y-113788333D01*
X190947857Y-114026428D01*
X190900238Y-114216904D01*
X190852619Y-114312142D01*
X190805000Y-114359761D01*
X190709762Y-114407380D01*
X190614524Y-114407380D01*
X190519286Y-114359761D01*
X190471667Y-114312142D01*
X190424048Y-114216904D01*
X190376429Y-114026428D01*
X190376429Y-113788333D01*
X190424048Y-113597857D01*
X190471667Y-113502619D01*
X190519286Y-113455000D01*
X190614524Y-113407380D01*
%TO.C,C4*%
X211750000Y-120757142D02*
X211702381Y-120804761D01*
X211559524Y-120852380D01*
X211464286Y-120852380D01*
X211321429Y-120804761D01*
X211226191Y-120709523D01*
X211178572Y-120614285D01*
X211130953Y-120423809D01*
X211130953Y-120280952D01*
X211178572Y-120090476D01*
X211226191Y-119995238D01*
X211321429Y-119900000D01*
X211464286Y-119852380D01*
X211559524Y-119852380D01*
X211702381Y-119900000D01*
X211750000Y-119947619D01*
X212566666Y-120185714D02*
X212566666Y-120852380D01*
X212328571Y-119804761D02*
X212090476Y-120519047D01*
X212709523Y-120519047D01*
%TO.C,C3*%
X206828923Y-152607142D02*
X206781304Y-152654761D01*
X206638447Y-152702380D01*
X206543209Y-152702380D01*
X206400352Y-152654761D01*
X206305114Y-152559523D01*
X206257495Y-152464285D01*
X206209876Y-152273809D01*
X206209876Y-152130952D01*
X206257495Y-151940476D01*
X206305114Y-151845238D01*
X206400352Y-151750000D01*
X206543209Y-151702380D01*
X206638447Y-151702380D01*
X206781304Y-151750000D01*
X206828923Y-151797619D01*
X207121780Y-151702380D02*
X207740827Y-151702380D01*
X207407494Y-152083333D01*
X207550351Y-152083333D01*
X207645589Y-152130952D01*
X207693208Y-152178571D01*
X207740827Y-152273809D01*
X207740827Y-152511904D01*
X207693208Y-152607142D01*
X207645589Y-152654761D01*
X207550351Y-152702380D01*
X207264637Y-152702380D01*
X207169399Y-152654761D01*
X207121780Y-152607142D01*
%TO.C,C2*%
X196623810Y-141107142D02*
X196576191Y-141154761D01*
X196433334Y-141202380D01*
X196338096Y-141202380D01*
X196195239Y-141154761D01*
X196100001Y-141059523D01*
X196052382Y-140964285D01*
X196004763Y-140773809D01*
X196004763Y-140630952D01*
X196052382Y-140440476D01*
X196100001Y-140345238D01*
X196195239Y-140250000D01*
X196338096Y-140202380D01*
X196433334Y-140202380D01*
X196576191Y-140250000D01*
X196623810Y-140297619D01*
X196964286Y-140297619D02*
X197011905Y-140250000D01*
X197107143Y-140202380D01*
X197345238Y-140202380D01*
X197440476Y-140250000D01*
X197488095Y-140297619D01*
X197535714Y-140392857D01*
X197535714Y-140488095D01*
X197488095Y-140630952D01*
X196916667Y-141202380D01*
X197535714Y-141202380D01*
%TO.C,C1*%
X194107142Y-147671077D02*
X194154761Y-147718696D01*
X194202380Y-147861553D01*
X194202380Y-147956791D01*
X194154761Y-148099648D01*
X194059523Y-148194886D01*
X193964285Y-148242505D01*
X193773809Y-148290124D01*
X193630952Y-148290124D01*
X193440476Y-148242505D01*
X193345238Y-148194886D01*
X193250000Y-148099648D01*
X193202380Y-147956791D01*
X193202380Y-147861553D01*
X193250000Y-147718696D01*
X193297619Y-147671077D01*
X194202380Y-146759173D02*
X194202380Y-147330601D01*
X194202380Y-147044887D02*
X193202380Y-147044887D01*
X193345238Y-147140125D01*
X193440476Y-147235363D01*
X193488095Y-147330601D01*
D11*
%TO.C,U1*%
X270900000Y-108900000D02*
X236900000Y-108900000D01*
X236900000Y-108900000D02*
X236900000Y-158900000D01*
X236900000Y-158900000D02*
X270900000Y-158900000D01*
X270900000Y-158900000D02*
X270900000Y-108900000D01*
%TO.C,U0*%
X210560000Y-133670000D02*
X209310000Y-133670000D01*
X210560000Y-143950000D02*
X210560000Y-133670000D01*
X206060000Y-143950000D02*
X210560000Y-143950000D01*
X206060000Y-133670000D02*
X206060000Y-143950000D01*
X207310000Y-133670000D02*
X206060000Y-133670000D01*
X207310000Y-133670000D02*
G75*
G03*
X209310000Y-133670000I1000000J0D01*
G01*
%TO.C,SW0*%
X189115000Y-130170000D02*
X189115000Y-132830000D01*
X194255000Y-130170000D02*
X189115000Y-130170000D01*
X194255000Y-132830000D02*
X189115000Y-132830000D01*
X194255000Y-130170000D02*
X194255000Y-132830000D01*
X195525000Y-130170000D02*
X196855000Y-130170000D01*
X196855000Y-130170000D02*
X196855000Y-131500000D01*
%TO.C,S0*%
X195674902Y-116322916D02*
X196565856Y-115431961D01*
X196565856Y-115431961D02*
X195788039Y-114654144D01*
X195788039Y-114654144D02*
X194897084Y-115545098D01*
X194897371Y-115545326D02*
G75*
G03*
X195674902Y-116322916I-2997371J-3774674D01*
G01*
%TO.C,R6*%
X202000000Y-126680000D02*
X202000000Y-125730000D01*
X202000000Y-120940000D02*
X202000000Y-121890000D01*
X202920000Y-125730000D02*
X202920000Y-121890000D01*
X201080000Y-125730000D02*
X202920000Y-125730000D01*
X201080000Y-121890000D02*
X201080000Y-125730000D01*
X202920000Y-121890000D02*
X201080000Y-121890000D01*
%TO.C,R5*%
X213380000Y-131300000D02*
X212430000Y-131300000D01*
X207640000Y-131300000D02*
X208590000Y-131300000D01*
X212430000Y-130380000D02*
X208590000Y-130380000D01*
X212430000Y-132220000D02*
X212430000Y-130380000D01*
X208590000Y-132220000D02*
X212430000Y-132220000D01*
X208590000Y-130380000D02*
X208590000Y-132220000D01*
%TO.C,R4*%
X190920000Y-136890000D02*
X189080000Y-136890000D01*
X189080000Y-136890000D02*
X189080000Y-140730000D01*
X189080000Y-140730000D02*
X190920000Y-140730000D01*
X190920000Y-140730000D02*
X190920000Y-136890000D01*
X190000000Y-135940000D02*
X190000000Y-136890000D01*
X190000000Y-141680000D02*
X190000000Y-140730000D01*
%TO.C,R3*%
X212110000Y-119420000D02*
X212110000Y-117580000D01*
X212110000Y-117580000D02*
X208270000Y-117580000D01*
X208270000Y-117580000D02*
X208270000Y-119420000D01*
X208270000Y-119420000D02*
X212110000Y-119420000D01*
X213060000Y-118500000D02*
X212110000Y-118500000D01*
X207320000Y-118500000D02*
X208270000Y-118500000D01*
%TO.C,R2*%
X201420000Y-144390000D02*
X199580000Y-144390000D01*
X199580000Y-144390000D02*
X199580000Y-148230000D01*
X199580000Y-148230000D02*
X201420000Y-148230000D01*
X201420000Y-148230000D02*
X201420000Y-144390000D01*
X200500000Y-143440000D02*
X200500000Y-144390000D01*
X200500000Y-149180000D02*
X200500000Y-148230000D01*
%TO.C,R1*%
X196420000Y-144390000D02*
X194580000Y-144390000D01*
X194580000Y-144390000D02*
X194580000Y-148230000D01*
X194580000Y-148230000D02*
X196420000Y-148230000D01*
X196420000Y-148230000D02*
X196420000Y-144390000D01*
X195500000Y-143440000D02*
X195500000Y-144390000D01*
X195500000Y-149180000D02*
X195500000Y-148230000D01*
D10*
%TO.C,P4*%
X224730000Y-138270000D02*
X224730000Y-156050000D01*
X224730000Y-156050000D02*
X227270000Y-156050000D01*
X227270000Y-156050000D02*
X227270000Y-138270000D01*
X224450000Y-135450000D02*
X224450000Y-137000000D01*
X224730000Y-138270000D02*
X227270000Y-138270000D01*
X227550000Y-137000000D02*
X227550000Y-135450000D01*
X227550000Y-135450000D02*
X224450000Y-135450000D01*
%TO.C,P3*%
X223730000Y-108570000D02*
X223730000Y-131430000D01*
X223730000Y-131430000D02*
X226270000Y-131430000D01*
X226270000Y-131430000D02*
X226270000Y-108570000D01*
X223450000Y-105750000D02*
X223450000Y-107300000D01*
X223730000Y-108570000D02*
X226270000Y-108570000D01*
X226550000Y-107300000D02*
X226550000Y-105750000D01*
X226550000Y-105750000D02*
X223450000Y-105750000D01*
%TO.C,P2*%
X219050000Y-114100000D02*
X215950000Y-114100000D01*
X219050000Y-115650000D02*
X219050000Y-114100000D01*
X216230000Y-116920000D02*
X218770000Y-116920000D01*
X215950000Y-114100000D02*
X215950000Y-115650000D01*
X218770000Y-129620000D02*
X218770000Y-116920000D01*
X216230000Y-129620000D02*
X218770000Y-129620000D01*
X216230000Y-116920000D02*
X216230000Y-129620000D01*
%TO.C,P1*%
X202370000Y-110270000D02*
X220150000Y-110270000D01*
X220150000Y-110270000D02*
X220150000Y-107730000D01*
X220150000Y-107730000D02*
X202370000Y-107730000D01*
X199550000Y-110550000D02*
X201100000Y-110550000D01*
X202370000Y-110270000D02*
X202370000Y-107730000D01*
X201100000Y-107450000D02*
X199550000Y-107450000D01*
X199550000Y-107450000D02*
X199550000Y-110550000D01*
D11*
%TO.C,J0*%
X192845000Y-106015000D02*
G75*
G03*
X192161682Y-106160244I0J-1680000D01*
G01*
X191309999Y-107011000D02*
G75*
G03*
X191309573Y-108378042I1535001J-684000D01*
G01*
X192161000Y-109230001D02*
G75*
G03*
X193528042Y-109230427I684000J1535001D01*
G01*
X194380001Y-108379000D02*
G75*
G03*
X194380427Y-107011958I-1535001J684000D01*
G01*
X193529000Y-106160000D02*
G75*
G03*
X192816195Y-106014747I-684000J-1535000D01*
G01*
X189445000Y-107695000D02*
G75*
G03*
X189445000Y-107695000I-1680000J0D01*
G01*
X195445000Y-103595000D02*
X185165000Y-103595000D01*
X195445000Y-105095000D02*
X185165000Y-105095000D01*
X195445000Y-109996000D02*
X185165000Y-109996000D01*
X195445000Y-112956000D02*
X185165000Y-112956000D01*
X195445000Y-103035000D02*
X185165000Y-103035000D01*
X195445000Y-112956000D02*
X195445000Y-103035000D01*
X185165000Y-112956000D02*
X185165000Y-103035000D01*
X186490000Y-108764000D02*
X186537000Y-108718000D01*
X188799000Y-106456000D02*
X188834000Y-106421000D01*
X186695000Y-108970000D02*
X186730000Y-108934000D01*
X188992000Y-106672000D02*
X189039000Y-106626000D01*
X195685000Y-103535000D02*
X195685000Y-102795000D01*
X195685000Y-102795000D02*
X195185000Y-102795000D01*
%TO.C,C4*%
X214464888Y-123900000D02*
G75*
G03*
X214464888Y-123900000I-2620000J0D01*
G01*
X211844888Y-121320000D02*
X211844888Y-126480000D01*
X211884888Y-121320000D02*
X211884888Y-126480000D01*
X211924888Y-121321000D02*
X211924888Y-126479000D01*
X211964888Y-121322000D02*
X211964888Y-126478000D01*
X212004888Y-121324000D02*
X212004888Y-126476000D01*
X212044888Y-121327000D02*
X212044888Y-126473000D01*
X212084888Y-121331000D02*
X212084888Y-122860000D01*
X212084888Y-124940000D02*
X212084888Y-126469000D01*
X212124888Y-121335000D02*
X212124888Y-122860000D01*
X212124888Y-124940000D02*
X212124888Y-126465000D01*
X212164888Y-121339000D02*
X212164888Y-122860000D01*
X212164888Y-124940000D02*
X212164888Y-126461000D01*
X212204888Y-121344000D02*
X212204888Y-122860000D01*
X212204888Y-124940000D02*
X212204888Y-126456000D01*
X212244888Y-121350000D02*
X212244888Y-122860000D01*
X212244888Y-124940000D02*
X212244888Y-126450000D01*
X212284888Y-121357000D02*
X212284888Y-122860000D01*
X212284888Y-124940000D02*
X212284888Y-126443000D01*
X212324888Y-121364000D02*
X212324888Y-122860000D01*
X212324888Y-124940000D02*
X212324888Y-126436000D01*
X212364888Y-121372000D02*
X212364888Y-122860000D01*
X212364888Y-124940000D02*
X212364888Y-126428000D01*
X212404888Y-121380000D02*
X212404888Y-122860000D01*
X212404888Y-124940000D02*
X212404888Y-126420000D01*
X212444888Y-121389000D02*
X212444888Y-122860000D01*
X212444888Y-124940000D02*
X212444888Y-126411000D01*
X212484888Y-121399000D02*
X212484888Y-122860000D01*
X212484888Y-124940000D02*
X212484888Y-126401000D01*
X212524888Y-121409000D02*
X212524888Y-122860000D01*
X212524888Y-124940000D02*
X212524888Y-126391000D01*
X212565888Y-121420000D02*
X212565888Y-122860000D01*
X212565888Y-124940000D02*
X212565888Y-126380000D01*
X212605888Y-121432000D02*
X212605888Y-122860000D01*
X212605888Y-124940000D02*
X212605888Y-126368000D01*
X212645888Y-121445000D02*
X212645888Y-122860000D01*
X212645888Y-124940000D02*
X212645888Y-126355000D01*
X212685888Y-121458000D02*
X212685888Y-122860000D01*
X212685888Y-124940000D02*
X212685888Y-126342000D01*
X212725888Y-121472000D02*
X212725888Y-122860000D01*
X212725888Y-124940000D02*
X212725888Y-126328000D01*
X212765888Y-121486000D02*
X212765888Y-122860000D01*
X212765888Y-124940000D02*
X212765888Y-126314000D01*
X212805888Y-121502000D02*
X212805888Y-122860000D01*
X212805888Y-124940000D02*
X212805888Y-126298000D01*
X212845888Y-121518000D02*
X212845888Y-122860000D01*
X212845888Y-124940000D02*
X212845888Y-126282000D01*
X212885888Y-121535000D02*
X212885888Y-122860000D01*
X212885888Y-124940000D02*
X212885888Y-126265000D01*
X212925888Y-121552000D02*
X212925888Y-122860000D01*
X212925888Y-124940000D02*
X212925888Y-126248000D01*
X212965888Y-121571000D02*
X212965888Y-122860000D01*
X212965888Y-124940000D02*
X212965888Y-126229000D01*
X213005888Y-121590000D02*
X213005888Y-122860000D01*
X213005888Y-124940000D02*
X213005888Y-126210000D01*
X213045888Y-121610000D02*
X213045888Y-122860000D01*
X213045888Y-124940000D02*
X213045888Y-126190000D01*
X213085888Y-121632000D02*
X213085888Y-122860000D01*
X213085888Y-124940000D02*
X213085888Y-126168000D01*
X213125888Y-121653000D02*
X213125888Y-122860000D01*
X213125888Y-124940000D02*
X213125888Y-126147000D01*
X213165888Y-121676000D02*
X213165888Y-122860000D01*
X213165888Y-124940000D02*
X213165888Y-126124000D01*
X213205888Y-121700000D02*
X213205888Y-122860000D01*
X213205888Y-124940000D02*
X213205888Y-126100000D01*
X213245888Y-121725000D02*
X213245888Y-122860000D01*
X213245888Y-124940000D02*
X213245888Y-126075000D01*
X213285888Y-121751000D02*
X213285888Y-122860000D01*
X213285888Y-124940000D02*
X213285888Y-126049000D01*
X213325888Y-121778000D02*
X213325888Y-122860000D01*
X213325888Y-124940000D02*
X213325888Y-126022000D01*
X213365888Y-121805000D02*
X213365888Y-122860000D01*
X213365888Y-124940000D02*
X213365888Y-125995000D01*
X213405888Y-121835000D02*
X213405888Y-122860000D01*
X213405888Y-124940000D02*
X213405888Y-125965000D01*
X213445888Y-121865000D02*
X213445888Y-122860000D01*
X213445888Y-124940000D02*
X213445888Y-125935000D01*
X213485888Y-121896000D02*
X213485888Y-122860000D01*
X213485888Y-124940000D02*
X213485888Y-125904000D01*
X213525888Y-121929000D02*
X213525888Y-122860000D01*
X213525888Y-124940000D02*
X213525888Y-125871000D01*
X213565888Y-121963000D02*
X213565888Y-122860000D01*
X213565888Y-124940000D02*
X213565888Y-125837000D01*
X213605888Y-121999000D02*
X213605888Y-122860000D01*
X213605888Y-124940000D02*
X213605888Y-125801000D01*
X213645888Y-122036000D02*
X213645888Y-122860000D01*
X213645888Y-124940000D02*
X213645888Y-125764000D01*
X213685888Y-122074000D02*
X213685888Y-122860000D01*
X213685888Y-124940000D02*
X213685888Y-125726000D01*
X213725888Y-122115000D02*
X213725888Y-122860000D01*
X213725888Y-124940000D02*
X213725888Y-125685000D01*
X213765888Y-122157000D02*
X213765888Y-122860000D01*
X213765888Y-124940000D02*
X213765888Y-125643000D01*
X213805888Y-122201000D02*
X213805888Y-122860000D01*
X213805888Y-124940000D02*
X213805888Y-125599000D01*
X213845888Y-122247000D02*
X213845888Y-122860000D01*
X213845888Y-124940000D02*
X213845888Y-125553000D01*
X213885888Y-122295000D02*
X213885888Y-122860000D01*
X213885888Y-124940000D02*
X213885888Y-125505000D01*
X213925888Y-122346000D02*
X213925888Y-122860000D01*
X213925888Y-124940000D02*
X213925888Y-125454000D01*
X213965888Y-122400000D02*
X213965888Y-122860000D01*
X213965888Y-124940000D02*
X213965888Y-125400000D01*
X214005888Y-122457000D02*
X214005888Y-122860000D01*
X214005888Y-124940000D02*
X214005888Y-125343000D01*
X214045888Y-122517000D02*
X214045888Y-122860000D01*
X214045888Y-124940000D02*
X214045888Y-125283000D01*
X214085888Y-122581000D02*
X214085888Y-122860000D01*
X214085888Y-124940000D02*
X214085888Y-125219000D01*
X214125888Y-122649000D02*
X214125888Y-122860000D01*
X214125888Y-124940000D02*
X214125888Y-125151000D01*
X214165888Y-122722000D02*
X214165888Y-125078000D01*
X214205888Y-122802000D02*
X214205888Y-124998000D01*
X214245888Y-122889000D02*
X214245888Y-124911000D01*
X214285888Y-122985000D02*
X214285888Y-124815000D01*
X214325888Y-123095000D02*
X214325888Y-124705000D01*
X214365888Y-123223000D02*
X214365888Y-124577000D01*
X214405888Y-123382000D02*
X214405888Y-124418000D01*
X214445888Y-123616000D02*
X214445888Y-124184000D01*
X209040113Y-122425000D02*
X209540113Y-122425000D01*
X209290113Y-122175000D02*
X209290113Y-122675000D01*
%TO.C,C3*%
X209575113Y-148500000D02*
G75*
G03*
X209575113Y-148500000I-2620000J0D01*
G01*
X206955113Y-151080000D02*
X206955113Y-145920000D01*
X206915113Y-151080000D02*
X206915113Y-145920000D01*
X206875113Y-151079000D02*
X206875113Y-145921000D01*
X206835113Y-151078000D02*
X206835113Y-145922000D01*
X206795113Y-151076000D02*
X206795113Y-145924000D01*
X206755113Y-151073000D02*
X206755113Y-145927000D01*
X206715113Y-151069000D02*
X206715113Y-149540000D01*
X206715113Y-147460000D02*
X206715113Y-145931000D01*
X206675113Y-151065000D02*
X206675113Y-149540000D01*
X206675113Y-147460000D02*
X206675113Y-145935000D01*
X206635113Y-151061000D02*
X206635113Y-149540000D01*
X206635113Y-147460000D02*
X206635113Y-145939000D01*
X206595113Y-151056000D02*
X206595113Y-149540000D01*
X206595113Y-147460000D02*
X206595113Y-145944000D01*
X206555113Y-151050000D02*
X206555113Y-149540000D01*
X206555113Y-147460000D02*
X206555113Y-145950000D01*
X206515113Y-151043000D02*
X206515113Y-149540000D01*
X206515113Y-147460000D02*
X206515113Y-145957000D01*
X206475113Y-151036000D02*
X206475113Y-149540000D01*
X206475113Y-147460000D02*
X206475113Y-145964000D01*
X206435113Y-151028000D02*
X206435113Y-149540000D01*
X206435113Y-147460000D02*
X206435113Y-145972000D01*
X206395113Y-151020000D02*
X206395113Y-149540000D01*
X206395113Y-147460000D02*
X206395113Y-145980000D01*
X206355113Y-151011000D02*
X206355113Y-149540000D01*
X206355113Y-147460000D02*
X206355113Y-145989000D01*
X206315113Y-151001000D02*
X206315113Y-149540000D01*
X206315113Y-147460000D02*
X206315113Y-145999000D01*
X206275113Y-150991000D02*
X206275113Y-149540000D01*
X206275113Y-147460000D02*
X206275113Y-146009000D01*
X206234113Y-150980000D02*
X206234113Y-149540000D01*
X206234113Y-147460000D02*
X206234113Y-146020000D01*
X206194113Y-150968000D02*
X206194113Y-149540000D01*
X206194113Y-147460000D02*
X206194113Y-146032000D01*
X206154113Y-150955000D02*
X206154113Y-149540000D01*
X206154113Y-147460000D02*
X206154113Y-146045000D01*
X206114113Y-150942000D02*
X206114113Y-149540000D01*
X206114113Y-147460000D02*
X206114113Y-146058000D01*
X206074113Y-150928000D02*
X206074113Y-149540000D01*
X206074113Y-147460000D02*
X206074113Y-146072000D01*
X206034113Y-150914000D02*
X206034113Y-149540000D01*
X206034113Y-147460000D02*
X206034113Y-146086000D01*
X205994113Y-150898000D02*
X205994113Y-149540000D01*
X205994113Y-147460000D02*
X205994113Y-146102000D01*
X205954113Y-150882000D02*
X205954113Y-149540000D01*
X205954113Y-147460000D02*
X205954113Y-146118000D01*
X205914113Y-150865000D02*
X205914113Y-149540000D01*
X205914113Y-147460000D02*
X205914113Y-146135000D01*
X205874113Y-150848000D02*
X205874113Y-149540000D01*
X205874113Y-147460000D02*
X205874113Y-146152000D01*
X205834113Y-150829000D02*
X205834113Y-149540000D01*
X205834113Y-147460000D02*
X205834113Y-146171000D01*
X205794113Y-150810000D02*
X205794113Y-149540000D01*
X205794113Y-147460000D02*
X205794113Y-146190000D01*
X205754113Y-150790000D02*
X205754113Y-149540000D01*
X205754113Y-147460000D02*
X205754113Y-146210000D01*
X205714113Y-150768000D02*
X205714113Y-149540000D01*
X205714113Y-147460000D02*
X205714113Y-146232000D01*
X205674113Y-150747000D02*
X205674113Y-149540000D01*
X205674113Y-147460000D02*
X205674113Y-146253000D01*
X205634113Y-150724000D02*
X205634113Y-149540000D01*
X205634113Y-147460000D02*
X205634113Y-146276000D01*
X205594113Y-150700000D02*
X205594113Y-149540000D01*
X205594113Y-147460000D02*
X205594113Y-146300000D01*
X205554113Y-150675000D02*
X205554113Y-149540000D01*
X205554113Y-147460000D02*
X205554113Y-146325000D01*
X205514113Y-150649000D02*
X205514113Y-149540000D01*
X205514113Y-147460000D02*
X205514113Y-146351000D01*
X205474113Y-150622000D02*
X205474113Y-149540000D01*
X205474113Y-147460000D02*
X205474113Y-146378000D01*
X205434113Y-150595000D02*
X205434113Y-149540000D01*
X205434113Y-147460000D02*
X205434113Y-146405000D01*
X205394113Y-150565000D02*
X205394113Y-149540000D01*
X205394113Y-147460000D02*
X205394113Y-146435000D01*
X205354113Y-150535000D02*
X205354113Y-149540000D01*
X205354113Y-147460000D02*
X205354113Y-146465000D01*
X205314113Y-150504000D02*
X205314113Y-149540000D01*
X205314113Y-147460000D02*
X205314113Y-146496000D01*
X205274113Y-150471000D02*
X205274113Y-149540000D01*
X205274113Y-147460000D02*
X205274113Y-146529000D01*
X205234113Y-150437000D02*
X205234113Y-149540000D01*
X205234113Y-147460000D02*
X205234113Y-146563000D01*
X205194113Y-150401000D02*
X205194113Y-149540000D01*
X205194113Y-147460000D02*
X205194113Y-146599000D01*
X205154113Y-150364000D02*
X205154113Y-149540000D01*
X205154113Y-147460000D02*
X205154113Y-146636000D01*
X205114113Y-150326000D02*
X205114113Y-149540000D01*
X205114113Y-147460000D02*
X205114113Y-146674000D01*
X205074113Y-150285000D02*
X205074113Y-149540000D01*
X205074113Y-147460000D02*
X205074113Y-146715000D01*
X205034113Y-150243000D02*
X205034113Y-149540000D01*
X205034113Y-147460000D02*
X205034113Y-146757000D01*
X204994113Y-150199000D02*
X204994113Y-149540000D01*
X204994113Y-147460000D02*
X204994113Y-146801000D01*
X204954113Y-150153000D02*
X204954113Y-149540000D01*
X204954113Y-147460000D02*
X204954113Y-146847000D01*
X204914113Y-150105000D02*
X204914113Y-149540000D01*
X204914113Y-147460000D02*
X204914113Y-146895000D01*
X204874113Y-150054000D02*
X204874113Y-149540000D01*
X204874113Y-147460000D02*
X204874113Y-146946000D01*
X204834113Y-150000000D02*
X204834113Y-149540000D01*
X204834113Y-147460000D02*
X204834113Y-147000000D01*
X204794113Y-149943000D02*
X204794113Y-149540000D01*
X204794113Y-147460000D02*
X204794113Y-147057000D01*
X204754113Y-149883000D02*
X204754113Y-149540000D01*
X204754113Y-147460000D02*
X204754113Y-147117000D01*
X204714113Y-149819000D02*
X204714113Y-149540000D01*
X204714113Y-147460000D02*
X204714113Y-147181000D01*
X204674113Y-149751000D02*
X204674113Y-149540000D01*
X204674113Y-147460000D02*
X204674113Y-147249000D01*
X204634113Y-149678000D02*
X204634113Y-147322000D01*
X204594113Y-149598000D02*
X204594113Y-147402000D01*
X204554113Y-149511000D02*
X204554113Y-147489000D01*
X204514113Y-149415000D02*
X204514113Y-147585000D01*
X204474113Y-149305000D02*
X204474113Y-147695000D01*
X204434113Y-149177000D02*
X204434113Y-147823000D01*
X204394113Y-149018000D02*
X204394113Y-147982000D01*
X204354113Y-148784000D02*
X204354113Y-148216000D01*
X209759888Y-149975000D02*
X209259888Y-149975000D01*
X209509888Y-150225000D02*
X209509888Y-149725000D01*
%TO.C,C2*%
X199370000Y-137000000D02*
G75*
G03*
X199370000Y-137000000I-2620000J0D01*
G01*
X196750000Y-139580000D02*
X196750000Y-134420000D01*
X196710000Y-139580000D02*
X196710000Y-134420000D01*
X196670000Y-139579000D02*
X196670000Y-134421000D01*
X196630000Y-139578000D02*
X196630000Y-134422000D01*
X196590000Y-139576000D02*
X196590000Y-134424000D01*
X196550000Y-139573000D02*
X196550000Y-134427000D01*
X196510000Y-139569000D02*
X196510000Y-138040000D01*
X196510000Y-135960000D02*
X196510000Y-134431000D01*
X196470000Y-139565000D02*
X196470000Y-138040000D01*
X196470000Y-135960000D02*
X196470000Y-134435000D01*
X196430000Y-139561000D02*
X196430000Y-138040000D01*
X196430000Y-135960000D02*
X196430000Y-134439000D01*
X196390000Y-139556000D02*
X196390000Y-138040000D01*
X196390000Y-135960000D02*
X196390000Y-134444000D01*
X196350000Y-139550000D02*
X196350000Y-138040000D01*
X196350000Y-135960000D02*
X196350000Y-134450000D01*
X196310000Y-139543000D02*
X196310000Y-138040000D01*
X196310000Y-135960000D02*
X196310000Y-134457000D01*
X196270000Y-139536000D02*
X196270000Y-138040000D01*
X196270000Y-135960000D02*
X196270000Y-134464000D01*
X196230000Y-139528000D02*
X196230000Y-138040000D01*
X196230000Y-135960000D02*
X196230000Y-134472000D01*
X196190000Y-139520000D02*
X196190000Y-138040000D01*
X196190000Y-135960000D02*
X196190000Y-134480000D01*
X196150000Y-139511000D02*
X196150000Y-138040000D01*
X196150000Y-135960000D02*
X196150000Y-134489000D01*
X196110000Y-139501000D02*
X196110000Y-138040000D01*
X196110000Y-135960000D02*
X196110000Y-134499000D01*
X196070000Y-139491000D02*
X196070000Y-138040000D01*
X196070000Y-135960000D02*
X196070000Y-134509000D01*
X196029000Y-139480000D02*
X196029000Y-138040000D01*
X196029000Y-135960000D02*
X196029000Y-134520000D01*
X195989000Y-139468000D02*
X195989000Y-138040000D01*
X195989000Y-135960000D02*
X195989000Y-134532000D01*
X195949000Y-139455000D02*
X195949000Y-138040000D01*
X195949000Y-135960000D02*
X195949000Y-134545000D01*
X195909000Y-139442000D02*
X195909000Y-138040000D01*
X195909000Y-135960000D02*
X195909000Y-134558000D01*
X195869000Y-139428000D02*
X195869000Y-138040000D01*
X195869000Y-135960000D02*
X195869000Y-134572000D01*
X195829000Y-139414000D02*
X195829000Y-138040000D01*
X195829000Y-135960000D02*
X195829000Y-134586000D01*
X195789000Y-139398000D02*
X195789000Y-138040000D01*
X195789000Y-135960000D02*
X195789000Y-134602000D01*
X195749000Y-139382000D02*
X195749000Y-138040000D01*
X195749000Y-135960000D02*
X195749000Y-134618000D01*
X195709000Y-139365000D02*
X195709000Y-138040000D01*
X195709000Y-135960000D02*
X195709000Y-134635000D01*
X195669000Y-139348000D02*
X195669000Y-138040000D01*
X195669000Y-135960000D02*
X195669000Y-134652000D01*
X195629000Y-139329000D02*
X195629000Y-138040000D01*
X195629000Y-135960000D02*
X195629000Y-134671000D01*
X195589000Y-139310000D02*
X195589000Y-138040000D01*
X195589000Y-135960000D02*
X195589000Y-134690000D01*
X195549000Y-139290000D02*
X195549000Y-138040000D01*
X195549000Y-135960000D02*
X195549000Y-134710000D01*
X195509000Y-139268000D02*
X195509000Y-138040000D01*
X195509000Y-135960000D02*
X195509000Y-134732000D01*
X195469000Y-139247000D02*
X195469000Y-138040000D01*
X195469000Y-135960000D02*
X195469000Y-134753000D01*
X195429000Y-139224000D02*
X195429000Y-138040000D01*
X195429000Y-135960000D02*
X195429000Y-134776000D01*
X195389000Y-139200000D02*
X195389000Y-138040000D01*
X195389000Y-135960000D02*
X195389000Y-134800000D01*
X195349000Y-139175000D02*
X195349000Y-138040000D01*
X195349000Y-135960000D02*
X195349000Y-134825000D01*
X195309000Y-139149000D02*
X195309000Y-138040000D01*
X195309000Y-135960000D02*
X195309000Y-134851000D01*
X195269000Y-139122000D02*
X195269000Y-138040000D01*
X195269000Y-135960000D02*
X195269000Y-134878000D01*
X195229000Y-139095000D02*
X195229000Y-138040000D01*
X195229000Y-135960000D02*
X195229000Y-134905000D01*
X195189000Y-139065000D02*
X195189000Y-138040000D01*
X195189000Y-135960000D02*
X195189000Y-134935000D01*
X195149000Y-139035000D02*
X195149000Y-138040000D01*
X195149000Y-135960000D02*
X195149000Y-134965000D01*
X195109000Y-139004000D02*
X195109000Y-138040000D01*
X195109000Y-135960000D02*
X195109000Y-134996000D01*
X195069000Y-138971000D02*
X195069000Y-138040000D01*
X195069000Y-135960000D02*
X195069000Y-135029000D01*
X195029000Y-138937000D02*
X195029000Y-138040000D01*
X195029000Y-135960000D02*
X195029000Y-135063000D01*
X194989000Y-138901000D02*
X194989000Y-138040000D01*
X194989000Y-135960000D02*
X194989000Y-135099000D01*
X194949000Y-138864000D02*
X194949000Y-138040000D01*
X194949000Y-135960000D02*
X194949000Y-135136000D01*
X194909000Y-138826000D02*
X194909000Y-138040000D01*
X194909000Y-135960000D02*
X194909000Y-135174000D01*
X194869000Y-138785000D02*
X194869000Y-138040000D01*
X194869000Y-135960000D02*
X194869000Y-135215000D01*
X194829000Y-138743000D02*
X194829000Y-138040000D01*
X194829000Y-135960000D02*
X194829000Y-135257000D01*
X194789000Y-138699000D02*
X194789000Y-138040000D01*
X194789000Y-135960000D02*
X194789000Y-135301000D01*
X194749000Y-138653000D02*
X194749000Y-138040000D01*
X194749000Y-135960000D02*
X194749000Y-135347000D01*
X194709000Y-138605000D02*
X194709000Y-138040000D01*
X194709000Y-135960000D02*
X194709000Y-135395000D01*
X194669000Y-138554000D02*
X194669000Y-138040000D01*
X194669000Y-135960000D02*
X194669000Y-135446000D01*
X194629000Y-138500000D02*
X194629000Y-138040000D01*
X194629000Y-135960000D02*
X194629000Y-135500000D01*
X194589000Y-138443000D02*
X194589000Y-138040000D01*
X194589000Y-135960000D02*
X194589000Y-135557000D01*
X194549000Y-138383000D02*
X194549000Y-138040000D01*
X194549000Y-135960000D02*
X194549000Y-135617000D01*
X194509000Y-138319000D02*
X194509000Y-138040000D01*
X194509000Y-135960000D02*
X194509000Y-135681000D01*
X194469000Y-138251000D02*
X194469000Y-138040000D01*
X194469000Y-135960000D02*
X194469000Y-135749000D01*
X194429000Y-138178000D02*
X194429000Y-135822000D01*
X194389000Y-138098000D02*
X194389000Y-135902000D01*
X194349000Y-138011000D02*
X194349000Y-135989000D01*
X194309000Y-137915000D02*
X194309000Y-136085000D01*
X194269000Y-137805000D02*
X194269000Y-136195000D01*
X194229000Y-137677000D02*
X194229000Y-136323000D01*
X194189000Y-137518000D02*
X194189000Y-136482000D01*
X194149000Y-137284000D02*
X194149000Y-136716000D01*
X199554775Y-138475000D02*
X199054775Y-138475000D01*
X199304775Y-138725000D02*
X199304775Y-138225000D01*
%TO.C,C1*%
X192620000Y-147544888D02*
G75*
G03*
X192620000Y-147544888I-2620000J0D01*
G01*
X192580000Y-147544888D02*
X187420000Y-147544888D01*
X192580000Y-147584888D02*
X187420000Y-147584888D01*
X192579000Y-147624888D02*
X187421000Y-147624888D01*
X192578000Y-147664888D02*
X187422000Y-147664888D01*
X192576000Y-147704888D02*
X187424000Y-147704888D01*
X192573000Y-147744888D02*
X187427000Y-147744888D01*
X192569000Y-147784888D02*
X191040000Y-147784888D01*
X188960000Y-147784888D02*
X187431000Y-147784888D01*
X192565000Y-147824888D02*
X191040000Y-147824888D01*
X188960000Y-147824888D02*
X187435000Y-147824888D01*
X192561000Y-147864888D02*
X191040000Y-147864888D01*
X188960000Y-147864888D02*
X187439000Y-147864888D01*
X192556000Y-147904888D02*
X191040000Y-147904888D01*
X188960000Y-147904888D02*
X187444000Y-147904888D01*
X192550000Y-147944888D02*
X191040000Y-147944888D01*
X188960000Y-147944888D02*
X187450000Y-147944888D01*
X192543000Y-147984888D02*
X191040000Y-147984888D01*
X188960000Y-147984888D02*
X187457000Y-147984888D01*
X192536000Y-148024888D02*
X191040000Y-148024888D01*
X188960000Y-148024888D02*
X187464000Y-148024888D01*
X192528000Y-148064888D02*
X191040000Y-148064888D01*
X188960000Y-148064888D02*
X187472000Y-148064888D01*
X192520000Y-148104888D02*
X191040000Y-148104888D01*
X188960000Y-148104888D02*
X187480000Y-148104888D01*
X192511000Y-148144888D02*
X191040000Y-148144888D01*
X188960000Y-148144888D02*
X187489000Y-148144888D01*
X192501000Y-148184888D02*
X191040000Y-148184888D01*
X188960000Y-148184888D02*
X187499000Y-148184888D01*
X192491000Y-148224888D02*
X191040000Y-148224888D01*
X188960000Y-148224888D02*
X187509000Y-148224888D01*
X192480000Y-148265888D02*
X191040000Y-148265888D01*
X188960000Y-148265888D02*
X187520000Y-148265888D01*
X192468000Y-148305888D02*
X191040000Y-148305888D01*
X188960000Y-148305888D02*
X187532000Y-148305888D01*
X192455000Y-148345888D02*
X191040000Y-148345888D01*
X188960000Y-148345888D02*
X187545000Y-148345888D01*
X192442000Y-148385888D02*
X191040000Y-148385888D01*
X188960000Y-148385888D02*
X187558000Y-148385888D01*
X192428000Y-148425888D02*
X191040000Y-148425888D01*
X188960000Y-148425888D02*
X187572000Y-148425888D01*
X192414000Y-148465888D02*
X191040000Y-148465888D01*
X188960000Y-148465888D02*
X187586000Y-148465888D01*
X192398000Y-148505888D02*
X191040000Y-148505888D01*
X188960000Y-148505888D02*
X187602000Y-148505888D01*
X192382000Y-148545888D02*
X191040000Y-148545888D01*
X188960000Y-148545888D02*
X187618000Y-148545888D01*
X192365000Y-148585888D02*
X191040000Y-148585888D01*
X188960000Y-148585888D02*
X187635000Y-148585888D01*
X192348000Y-148625888D02*
X191040000Y-148625888D01*
X188960000Y-148625888D02*
X187652000Y-148625888D01*
X192329000Y-148665888D02*
X191040000Y-148665888D01*
X188960000Y-148665888D02*
X187671000Y-148665888D01*
X192310000Y-148705888D02*
X191040000Y-148705888D01*
X188960000Y-148705888D02*
X187690000Y-148705888D01*
X192290000Y-148745888D02*
X191040000Y-148745888D01*
X188960000Y-148745888D02*
X187710000Y-148745888D01*
X192268000Y-148785888D02*
X191040000Y-148785888D01*
X188960000Y-148785888D02*
X187732000Y-148785888D01*
X192247000Y-148825888D02*
X191040000Y-148825888D01*
X188960000Y-148825888D02*
X187753000Y-148825888D01*
X192224000Y-148865888D02*
X191040000Y-148865888D01*
X188960000Y-148865888D02*
X187776000Y-148865888D01*
X192200000Y-148905888D02*
X191040000Y-148905888D01*
X188960000Y-148905888D02*
X187800000Y-148905888D01*
X192175000Y-148945888D02*
X191040000Y-148945888D01*
X188960000Y-148945888D02*
X187825000Y-148945888D01*
X192149000Y-148985888D02*
X191040000Y-148985888D01*
X188960000Y-148985888D02*
X187851000Y-148985888D01*
X192122000Y-149025888D02*
X191040000Y-149025888D01*
X188960000Y-149025888D02*
X187878000Y-149025888D01*
X192095000Y-149065888D02*
X191040000Y-149065888D01*
X188960000Y-149065888D02*
X187905000Y-149065888D01*
X192065000Y-149105888D02*
X191040000Y-149105888D01*
X188960000Y-149105888D02*
X187935000Y-149105888D01*
X192035000Y-149145888D02*
X191040000Y-149145888D01*
X188960000Y-149145888D02*
X187965000Y-149145888D01*
X192004000Y-149185888D02*
X191040000Y-149185888D01*
X188960000Y-149185888D02*
X187996000Y-149185888D01*
X191971000Y-149225888D02*
X191040000Y-149225888D01*
X188960000Y-149225888D02*
X188029000Y-149225888D01*
X191937000Y-149265888D02*
X191040000Y-149265888D01*
X188960000Y-149265888D02*
X188063000Y-149265888D01*
X191901000Y-149305888D02*
X191040000Y-149305888D01*
X188960000Y-149305888D02*
X188099000Y-149305888D01*
X191864000Y-149345888D02*
X191040000Y-149345888D01*
X188960000Y-149345888D02*
X188136000Y-149345888D01*
X191826000Y-149385888D02*
X191040000Y-149385888D01*
X188960000Y-149385888D02*
X188174000Y-149385888D01*
X191785000Y-149425888D02*
X191040000Y-149425888D01*
X188960000Y-149425888D02*
X188215000Y-149425888D01*
X191743000Y-149465888D02*
X191040000Y-149465888D01*
X188960000Y-149465888D02*
X188257000Y-149465888D01*
X191699000Y-149505888D02*
X191040000Y-149505888D01*
X188960000Y-149505888D02*
X188301000Y-149505888D01*
X191653000Y-149545888D02*
X191040000Y-149545888D01*
X188960000Y-149545888D02*
X188347000Y-149545888D01*
X191605000Y-149585888D02*
X191040000Y-149585888D01*
X188960000Y-149585888D02*
X188395000Y-149585888D01*
X191554000Y-149625888D02*
X191040000Y-149625888D01*
X188960000Y-149625888D02*
X188446000Y-149625888D01*
X191500000Y-149665888D02*
X191040000Y-149665888D01*
X188960000Y-149665888D02*
X188500000Y-149665888D01*
X191443000Y-149705888D02*
X191040000Y-149705888D01*
X188960000Y-149705888D02*
X188557000Y-149705888D01*
X191383000Y-149745888D02*
X191040000Y-149745888D01*
X188960000Y-149745888D02*
X188617000Y-149745888D01*
X191319000Y-149785888D02*
X191040000Y-149785888D01*
X188960000Y-149785888D02*
X188681000Y-149785888D01*
X191251000Y-149825888D02*
X191040000Y-149825888D01*
X188960000Y-149825888D02*
X188749000Y-149825888D01*
X191178000Y-149865888D02*
X188822000Y-149865888D01*
X191098000Y-149905888D02*
X188902000Y-149905888D01*
X191011000Y-149945888D02*
X188989000Y-149945888D01*
X190915000Y-149985888D02*
X189085000Y-149985888D01*
X190805000Y-150025888D02*
X189195000Y-150025888D01*
X190677000Y-150065888D02*
X189323000Y-150065888D01*
X190518000Y-150105888D02*
X189482000Y-150105888D01*
X190284000Y-150145888D02*
X189716000Y-150145888D01*
X191475000Y-144740113D02*
X191475000Y-145240113D01*
X191725000Y-144990113D02*
X191225000Y-144990113D01*
%TD*%
D12*
%TO.C,P4*%
X226000000Y-137000000D03*
X226000000Y-139540000D03*
X226000000Y-142080000D03*
X226000000Y-144620000D03*
X226000000Y-147160000D03*
X226000000Y-149700000D03*
X226000000Y-152240000D03*
X226000000Y-154780000D03*
%TD*%
%TO.C,P3*%
X225000000Y-107300000D03*
X225000000Y-109840000D03*
X225000000Y-112380000D03*
X225000000Y-114920000D03*
X225000000Y-117460000D03*
X225000000Y-120000000D03*
X225000000Y-122540000D03*
X225000000Y-125080000D03*
X225000000Y-127620000D03*
X225000000Y-130160000D03*
%TD*%
%TO.C,P2*%
X217500000Y-128350000D03*
X217500000Y-125810000D03*
X217500000Y-123270000D03*
X217500000Y-120730000D03*
X217500000Y-118190000D03*
X217500000Y-115650000D03*
%TD*%
D13*
%TO.C,P1*%
X201100000Y-109000000D03*
X203640000Y-109000000D03*
X206180000Y-109000000D03*
X208720000Y-109000000D03*
X211260000Y-109000000D03*
X213800000Y-109000000D03*
X216340000Y-109000000D03*
X218880000Y-109000000D03*
%TD*%
M02*
